<svg width="103" height="104" viewBox="0 0 103 104" fill="none" xmlns="http://www.w3.org/2000/svg">
<path fill-rule="evenodd" clip-rule="evenodd" d="M86.8523 43.6686L64.7068 0L53.2879 29.8661L65.1668 42.9281L86.8523 43.6686Z" fill="#187277"/>
<path fill-rule="evenodd" clip-rule="evenodd" d="M64.7066 0L65.0526 0.666697V41.3351L53.1036 29.8346L64.7066 0Z" fill="#50AFBE"/>
<path fill-rule="evenodd" clip-rule="evenodd" d="M64.7066 0L65.0527 0.666697V16.0007H58.4781L64.7066 0Z" fill="#89D0D3"/>
<path fill-rule="evenodd" clip-rule="evenodd" d="M15.9172 43.6686L38.0628 0L49.4815 29.8661L37.6026 42.9281L15.9172 43.6686Z" fill="#187277"/>
<path fill-rule="evenodd" clip-rule="evenodd" d="M38.0628 0L37.7167 0.666697V41.3351L49.6657 29.8346L38.0628 0Z" fill="#50AFBE"/>
<path fill-rule="evenodd" clip-rule="evenodd" d="M38.0628 0L37.7167 0.666697V16.0007H44.2911L38.0628 0Z" fill="#89D0D3"/>
<mask id="mask0_1_219" style="mask-type:alpha" maskUnits="userSpaceOnUse" x="0" y="29" width="103" height="75">
<path fill-rule="evenodd" clip-rule="evenodd" d="M0 29.6678H103V103.757H0V29.6678Z" fill="white"/>
</mask>
<g mask="url(#mask0_1_219)">
<path fill-rule="evenodd" clip-rule="evenodd" d="M64.6564 29.6678L86.3856 42.7967L102.077 70.8194L90.8096 92.3773L66.8715 103.671H35.8977L11.9575 92.3773L0.692001 70.8194L16.3835 42.7967L38.1108 29.6678H64.6564Z" fill="#50AFBE"/>
</g>
<mask id="mask1_1_219" style="mask-type:alpha" maskUnits="userSpaceOnUse" x="5" y="64" width="93" height="40">
<path fill-rule="evenodd" clip-rule="evenodd" d="M5.44678 64.8646H97.4347V103.623H5.44678V64.8646Z" fill="white"/>
</mask>
<g mask="url(#mask1_1_219)">
<path fill-rule="evenodd" clip-rule="evenodd" d="M43.8165 64.8646L5.36344 79.6701L11.9523 92.2722L35.9312 103.625H66.9502L90.927 92.2722L97.4347 79.7796L59.065 64.8646H43.8165Z" fill="#89D0D3"/>
</g>
<path fill-rule="evenodd" clip-rule="evenodd" d="M64.3605 61.1693C64.3605 63.1038 65.4447 64.6695 66.7837 64.6695C68.1186 64.6695 69.2048 63.1038 69.2048 61.1693C69.2048 59.2375 68.1186 57.6692 66.7837 57.6692C65.4447 57.6692 64.3605 59.2375 64.3605 61.1693Z" fill="#187277"/>
<path fill-rule="evenodd" clip-rule="evenodd" d="M40.4848 61.1693C40.4848 63.1038 39.4028 64.6695 38.0637 64.6695C36.7267 64.6695 35.6405 63.1038 35.6405 61.1693C35.6405 59.2375 36.7267 57.6692 38.0637 57.6692C39.4028 57.6692 40.4848 59.2375 40.4848 61.1693Z" fill="#187277"/>
<path fill-rule="evenodd" clip-rule="evenodd" d="M58.9414 87.6706C58.7417 87.6706 58.542 87.6145 58.3692 87.5004L50.5985 82.38C50.1476 82.0821 50.0384 81.496 50.3535 81.0706C50.6706 80.6469 51.2945 80.5444 51.7474 80.8423L58.9024 85.5582L65.1616 80.8752C65.5898 80.5521 66.22 80.6179 66.5637 81.0242C66.9096 81.4302 66.8375 82.0222 66.4053 82.3452L59.5654 87.4675C59.3841 87.601 59.1618 87.6706 58.9414 87.6706Z" fill="#187277"/>
<path fill-rule="evenodd" clip-rule="evenodd" d="M43.8278 87.3373C43.6075 87.3373 43.3851 87.2599 43.2038 87.1116L36.3633 81.4229C35.9308 81.0642 35.8609 80.4068 36.2048 79.9557C36.5485 79.5066 37.1787 79.4336 37.6069 79.7902L43.8669 84.9913L50.5963 80.0653V72.3808C50.5963 71.805 51.0432 71.3367 51.595 71.3367C52.1489 71.3367 52.5957 71.805 52.5957 72.3808V80.6066C52.5957 80.9481 52.4393 81.264 52.1715 81.4616L44.4003 87.1482C44.2272 87.275 44.0275 87.3373 43.8278 87.3373Z" fill="#187277"/>
<path fill-rule="evenodd" clip-rule="evenodd" d="M57.094 69.0029L51.2138 76.0034L45.3292 69.0029H57.094Z" fill="#187277"/>
</svg>
