<svg width="500" height="300" viewBox="0 0 500 377" fill="none" xmlns="http://www.w3.org/2000/svg">
<g clip-path="url(#clip0_1_124)">
<path d="M304.161 10.9127C301.414 15.0259 299.365 24.4559 297.516 29.5723C295.668 34.6886 295.368 50.0376 295.019 53.3984C294.669 56.7589 295.868 67.4934 295.868 67.4934L309.657 69.7505C309.657 69.7505 310.906 61.9255 314.603 57.6118C318.55 52.997 326.244 42.5137 324.296 38.4505C321.198 31.9801 304.561 32.5318 304.561 32.5318C304.561 32.5318 305.36 27.4656 305.76 23.6534C306.16 19.8412 310.956 12.869 309.058 10.5616C307.159 8.20412 304.861 9.90956 304.161 10.9127Z" fill="#F7A491"/>
<path d="M244.31 402.7H203.092L204.691 395.827L193.45 345.568L177.563 246.25L227.973 231.754L241.312 266.465C241.312 266.465 250.006 349.279 244.96 398.836C244.86 399.892 244.66 401.194 244.31 402.7Z" fill="#333333"/>
<path d="M144.837 402.7L147.287 395.777L152.181 272.233L163.623 233.559L221.528 234.763L223.127 265.411L184.507 402.7H144.837Z" fill="#333333"/>
<path d="M215.783 94.6166L274.487 128.675L293.423 62.9155L314.256 64.37C314.256 64.37 302.415 159.824 291.774 166.496C278.234 175.023 228.673 156.614 228.673 156.614L215.783 94.6166Z" fill="#187277"/>
<path d="M169.969 91.9074C169.969 91.9074 150.583 94.3654 146.035 97.7262C140.941 101.438 125.154 118.994 125.154 118.994C125.154 118.994 158.027 213.496 156.729 230.299C155.48 247.103 151.831 272.032 151.831 272.032C151.831 272.032 215.632 276.095 239.814 266.515C239.814 266.515 232.169 228.393 232.169 218.411C232.169 208.429 220.928 109.815 217.881 104.548C214.833 99.3314 194.948 91.3557 194.948 91.3557L169.969 91.9074Z" fill="white"/>
<path d="M257.551 346.118C257.95 344.112 244.461 248.758 244.161 245.397C241.413 211.79 228.873 109.714 217.132 95.5691C215.733 94.2651 212.236 93.1614 208.389 92.66C201.942 91.8574 195.001 91.3557 195.001 91.3557C195.001 91.3557 203.193 97.8765 205.141 100.635C213.885 113.075 217.482 127.521 219.43 142.92C225.026 187.563 230.122 350.282 232.12 351.035C234.369 351.788 256.651 350.582 257.551 346.118Z" fill="#187277"/>
<path d="M177.054 3.02461C177.054 3.02461 166.985 -1.562 160.415 8.99366C160.465 8.89335 156.27 8.94349 155.72 9.09397C153.32 9.89654 150.973 12.4045 148.876 13.809C141.232 18.7247 137.733 28.2551 137.333 36.9829C136.834 47.6168 141.182 55.3416 148.176 63.0161C150.224 65.2732 152.421 67.4803 155.118 68.9349C158.367 70.6906 160.914 69.286 163.964 70.0386C166.51 70.6403 167.409 73.3991 170.459 72.396C174.704 71.0417 179.151 65.7246 184.398 66.4772C189.642 67.2798 158.611 18.6828 188 36.6936C203.537 30.6242 200.063 20.3069 198.197 13.809C195.076 6.24879 186.645 -0.63707 177.054 3.02461Z" fill="#473B1E"/>
<path d="M188.805 74.0508L192.85 85.1361L195.051 91.3058C195.051 91.3058 195.201 102.391 192.651 105.25C188.206 110.166 170.019 91.9078 170.019 91.9078L164.273 57.0967L188.805 74.0508Z" fill="#F7A491"/>
<path d="M166.07 68.3329C173.015 79.1173 184.907 84.033 192.85 85.1867L188.755 74.0011L164.173 56.9967L166.07 68.3329Z" fill="#D78E7D"/>
<path d="M168.92 21.3329C178.212 15.6648 190.353 19.9786 194.149 30.0106C195.8 34.3746 197.648 39.8923 199.146 46.1119C202.695 60.9595 198.197 77.2113 191.452 78.7159C184.707 80.2207 163.923 74.7034 158.576 53.6358C155.33 40.5943 159.176 27.302 168.92 21.3329Z" fill="#F7A491"/>
<path d="M163.923 54.1376C164.622 57.4481 163.074 60.5581 160.377 61.1598C157.677 61.7618 154.931 59.5547 154.232 56.2944C153.532 52.9839 155.081 49.8739 157.777 49.2719C160.477 48.6702 163.224 50.877 163.923 54.1376Z" fill="#F7A491"/>
<path d="M169.969 91.9081C169.969 91.9081 141.641 94.7169 134.396 99.4823C129.799 102.492 133.397 136.199 133.397 136.199C133.397 136.199 139.893 187.112 138.994 212.844C138.894 215.352 138.794 217.76 138.644 220.167C136.144 258.891 115.51 351.588 117.311 353.19C128.9 359.713 192.251 359.41 193 354.296C199.196 310.706 169.969 91.9081 169.969 91.9081Z" fill="#187277"/>
<path d="M139.044 210.737C139.044 211.439 138.994 212.142 138.994 212.794C138.894 215.252 138.794 217.659 138.641 220.017L177.213 201.959L139.044 210.737Z" fill="url(#paint0_linear_1_124)"/>
<path d="M218.78 173.468C217.481 174.07 215.333 175.123 213.884 176.126C212.335 177.18 210.587 177.631 209.138 178.333C206.29 179.688 204.242 180.741 204.242 180.591C204.242 180.39 203.492 180.29 204.941 179.287C206.64 178.083 210.836 176.377 213.185 174.421C214.534 173.318 217.481 171.211 217.481 171.211C217.481 171.211 221.378 167.198 221.228 166.897C220.379 165.292 216.982 167.298 215.333 169.004C213.734 169.556 210.687 171.913 210.687 171.913C210.687 171.913 203.492 175.274 203.043 174.271C202.841 173.869 207.039 171.311 210.736 168.151C214.184 165.242 217.181 161.73 216.732 160.978C215.933 159.724 211.786 162.533 211.786 162.533C211.786 162.533 208.988 164.69 207.989 165.292C206.84 166.044 203.192 168.051 203.192 168.051C203.192 168.051 190.254 174.421 189.904 173.468C189.554 172.515 189.654 169.606 190.303 168.954C190.953 168.302 192.701 167.549 193.5 166.997C194.548 166.345 196.146 164.64 195.397 163.787C194.648 162.934 188.552 165.192 188.552 165.192C188.552 165.192 184.957 166.847 183.309 169.104C177.663 176.829 179.161 177.431 178.412 178.384C177.513 179.537 159.325 186.209 159.325 186.209C159.325 186.209 104.72 199.802 101.82 200.805L109.065 222.926C112.414 222.474 173.514 197.896 179.71 194.987C179.71 194.987 188.303 194.184 193.699 193.482C199.096 192.78 203.992 189.77 205.491 189.369C205.69 189.318 210.637 187.613 216.132 183.951C220.879 180.791 214.983 181.644 214.983 181.644C214.983 181.644 205.141 185.958 204.941 185.155C204.791 184.503 210.287 182.497 215.633 179.036C216.982 178.133 218.331 177.28 219.58 176.477C222.877 174.321 222.527 171.763 218.78 173.468Z" fill="#F8A492"/>
<path d="M136.843 98.278C136.843 98.278 127.651 99.5319 119.758 110.969C111.864 122.355 94.3761 171.562 88.9327 190.372C83.4362 209.383 86.2329 219.916 98.6241 223.026C111.015 226.136 177.263 201.959 177.263 201.959L171.067 179.136C171.067 179.136 127.152 188.867 125.604 188.115L139.393 164.289C139.343 164.289 150.133 125.716 136.843 98.278Z" fill="#187277"/>
<path d="M182.11 66.2263C182.11 66.2263 182.16 69.8883 183.359 70.5403C184.557 71.1923 186.006 71.694 187.404 71.8443C189.654 72.0452 191.652 71.092 192.85 69.3866C192.95 69.236 193.05 69.0355 193.15 68.8349C194.049 67.0289 194.249 63.7687 194.249 63.7687C194.249 63.7687 190.503 62.8658 188.306 63.217C186.155 63.6181 182.11 66.2263 182.11 66.2263Z" fill="#F7A491"/>
<path d="M174.207 47.067C172.953 47.3394 170.827 42.6471 174.008 41.9561C175.649 41.6003 176.33 46.6065 174.207 47.067Z" fill="#382823"/>
<path d="M193.537 43.0723C194.792 42.8002 194.785 37.6474 191.602 38.3381C189.866 38.7152 191.415 43.5331 193.537 43.0723Z" fill="#382823"/>
<path d="M176.339 36.3965C171.698 35.484 164.02 40.5871 166.545 41.0501C167.378 41.1719 169.697 39.7589 170.543 39.474C172.335 38.883 175.821 39.1363 176.77 37.9198C177.266 37.4081 176.979 36.5606 176.339 36.3965Z" fill="#473B1E"/>
<path d="M186.212 35.3649C187.504 36.1962 190.775 34.9807 192.573 34.8935C193.481 34.8979 196.143 35.5327 196.874 35.1722C199.136 33.9732 190.213 31.4643 186.168 33.7576C185.631 34.0763 185.721 34.966 186.212 35.3649Z" fill="#473B1E"/>
<path d="M183.39 53.5631C183.168 53.0048 184.036 52.8164 184.573 52.4978C186.589 51.5543 186.917 52.5953 184.005 43.828C183.437 42.1326 182.937 41.23 183.518 41.1044C184.095 40.9789 184.049 41.6964 184.779 43.6605C187.95 53.1788 187.7 52.0207 183.955 53.8442C183.743 53.7896 183.527 53.7352 183.39 53.5631Z" fill="#A95540"/>
<path d="M192.576 59.6721C192.117 63.6121 185.157 68.7621 182.638 62.7393C182.597 62.5462 182.672 62.4288 182.866 62.3869C184.161 62.3079 188.936 61.9786 192.126 59.4662C192.301 59.3278 192.535 59.479 192.576 59.6721Z" fill="#FFF5ED"/>
</g>
<defs>
<linearGradient id="paint0_linear_1_124" x1="149.774" y1="274.367" x2="156.703" y2="218.476" gradientUnits="userSpaceOnUse">
<stop stop-color="#53CD9F"/>
<stop offset="1" stop-color="#0D7A5C"/>
</linearGradient>
<clipPath id="clip0_1_124">
<rect width="515" height="377" fill="white" transform="matrix(-1 0 0 1 515 0)"/>
</clipPath>
</defs>
</svg>
