<svg width="500" height="300" viewBox="0 0 449 418" fill="none" xmlns="http://www.w3.org/2000/svg">
<g clip-path="url(#clip0_1_148)">
<path d="M249.51 422.821H80.8567V358.678H250.095C263.769 358.678 274.849 369.766 274.849 383.454V397.46C274.849 411.468 263.506 422.821 249.51 422.821Z" fill="#FCECDB"/>
<path d="M419.536 385.058V394.718C419.536 399.883 418.253 404.698 415.978 408.842C411.429 417.187 402.973 422.821 393.292 422.821H75.6377C73.5383 422.821 71.847 420.982 71.847 418.734V417.275C71.847 415.027 73.5383 413.191 75.6377 413.191H269.282C270.33 411.848 271.235 410.387 271.992 408.813C273.802 405.165 274.822 400.992 274.822 396.557V384.3C274.822 382.052 274.559 379.863 274.033 377.763C273.16 374.231 271.613 370.993 269.543 368.249H75.6377C73.5383 368.249 71.847 366.41 71.847 364.164V362.735C71.847 360.487 73.5383 358.648 75.6377 358.648H394.898C406.152 358.648 415.629 366.731 418.575 377.763C419.216 380.097 419.536 382.548 419.536 385.058Z" fill="#2A919C"/>
<path d="M418.604 377.792H274.062C273.189 374.263 271.643 371.022 269.572 368.28H75.6377C73.5383 368.28 71.847 366.442 71.847 364.194V362.764C71.847 360.516 73.5383 358.678 75.6377 358.678H394.898C406.152 358.678 415.658 366.763 418.604 377.792Z" fill="#2AB1C0"/>
<path d="M80.8567 390.749L104.359 391.828L80.8567 392.47V390.749Z" fill="#F4D2B8"/>
<path d="M80.8567 400.816L136.813 401.897L80.8567 402.539V400.816Z" fill="#F4D2B8"/>
<path d="M201.254 358.823H38.2859V285.518H201.867C216.329 285.518 228.051 297.249 228.051 311.724V332.006C228.022 346.799 216.038 358.823 201.254 358.823Z" fill="#FCECDB"/>
<path d="M228.14 313.94V329.728C228.11 336.47 224.989 342.307 220.382 345.429C218.137 346.974 215.513 347.851 212.743 347.851H33.2997C31.2001 347.851 29.4798 349.894 29.4798 352.404V354.27C29.4798 356.78 31.171 358.823 33.2997 358.823H343.315C352.209 358.823 360.082 353.542 364.835 345.459C367.838 340.35 369.588 334.165 369.588 327.452V314.991C369.588 310.411 368.713 306.062 367.139 302.18C363.143 292.318 354.717 285.518 344.92 285.518H33.2997C31.2001 285.518 29.4798 287.56 29.4798 290.07V291.938C29.4798 294.448 31.171 296.491 33.2997 296.491H213.297C217.612 296.491 221.49 298.678 224.202 302.18C226.622 305.275 228.11 309.389 228.14 313.94Z" fill="#F2C94C"/>
<path d="M29.4798 352.404V354.272C29.4798 356.78 31.171 358.823 33.2997 358.823H343.315C352.209 358.823 360.082 353.542 364.835 345.459H220.382C218.137 347.004 215.513 347.88 212.743 347.88H33.2997C31.171 347.85 29.4798 349.894 29.4798 352.404Z" fill="#C9A94A"/>
<path d="M38.2859 322.171L61.2921 323.395L38.2859 324.126V322.171Z" fill="#F4D2B8"/>
<path d="M38.2859 305.304L93.0169 306.529L38.2859 307.259V305.304Z" fill="#F4D2B8"/>
<path d="M92.4629 306.294C92.4629 306.294 88.8471 308.629 87.6516 312.452C87.4475 313.123 87.3017 313.824 87.2727 314.582C87.0684 319.661 87.2727 331.159 87.2727 331.159L76.6005 325.409L65.9574 331.159V315.576C65.9574 312.627 66.8613 309.767 68.5526 307.901C69.3692 306.995 70.3606 306.294 71.4976 306.294H92.4629Z" fill="#F2C94C"/>
<path d="M92.4632 306.294C92.4632 306.294 88.8476 308.629 87.6521 312.452L66.2785 312.686C66.2785 312.686 67.1242 307.23 71.5273 306.324H92.4632V306.294Z" fill="#C9A94A"/>
<path d="M188.744 265.614C197.539 281.161 208.676 287.189 208.676 287.189L255.184 287.523C255.184 287.523 182.052 253.752 188.744 265.614Z" fill="#2A919C"/>
<path d="M223.636 385.591C224.831 386.979 224.975 388.556 224.353 390.183C223.206 393.246 219.525 396.641 215.271 400.038C214.746 400.468 214.22 400.85 213.837 401.233C213.742 401.328 213.598 401.424 213.503 401.52C213.407 401.617 213.312 401.665 213.264 401.761C209.249 405.395 210.778 406.257 203.561 413.623C195.387 422.043 189.795 422.138 188.169 421.374C186.831 420.702 189.603 416.254 192.662 411.232C192.806 410.993 192.949 410.754 193.093 410.515C193.523 409.843 193.905 409.174 194.335 408.505C197.92 402.477 197.06 399.608 196.247 390.565C195.626 383.199 185.11 349.473 185.11 349.473L200.693 346.89C200.693 346.89 205.186 373.728 210.348 377.936C213.12 380.138 216.18 380.186 218.856 381.859C219.048 381.954 219.239 382.098 219.43 382.193C220.912 383.151 222.441 384.203 223.636 385.591Z" fill="#F4B1A4"/>
<path d="M223.637 385.591C224.832 386.979 224.975 388.556 224.354 390.183C222.968 393.246 219.383 396.641 215.224 399.99C214.698 400.42 214.22 400.85 213.79 401.233C213.695 401.328 213.551 401.424 213.456 401.522C213.36 401.617 213.264 401.665 213.217 401.761C209.201 405.395 210.731 406.257 203.513 413.623C195.34 422.043 189.747 422.138 188.122 421.374C186.784 420.702 189.556 416.254 192.615 411.232C194.193 410.658 201.554 407.739 207.194 400.659C212.117 394.44 215.463 386.451 218.809 381.811C219 381.906 219.191 382.05 219.383 382.145C220.912 383.151 222.442 384.203 223.637 385.591Z" fill="#233862"/>
<path d="M98.0689 374.971C97.065 379.754 90.2297 378.941 82.582 376.98C74.934 375.066 76.7504 377.314 65.8522 376.024C54.954 374.732 51.7037 370.665 51.3692 369.038C51.0824 367.605 56.4837 367.124 62.2672 366.503C62.9843 366.408 63.7013 366.36 64.4662 366.264C71.0146 365.5 75.7944 361.338 81.7693 357.893C87.4096 354.641 95.8701 341.388 95.8701 341.388L110.831 342.68C110.831 342.68 102.897 354.545 99.8374 359.711C98.021 362.724 98.1167 366.79 98.3079 369.901C98.3557 371.573 98.4512 373.296 98.0689 374.971Z" fill="#F4B1A4"/>
<path d="M82.582 377.028C74.934 375.114 76.7504 377.362 65.8522 376.072C54.954 374.779 51.7037 370.713 51.3692 369.086C51.0824 367.652 56.4837 367.175 62.2672 366.551L62.3151 366.647C62.3151 366.647 68.8158 371.334 77.8976 371.623C85.3066 371.862 93.1455 369.805 98.26 369.901C98.3557 371.575 98.4512 373.344 98.1167 375.018C97.065 379.802 90.2297 378.941 82.582 377.028Z" fill="#233862"/>
<path d="M156.049 279.727L169.767 317.47L187.644 366.742C187.644 366.742 192.567 367.27 197.347 365.93C201.697 364.685 206.764 361.433 206.764 361.433C206.764 361.433 202.079 308.668 192.854 278.291C190.464 270.493 187.835 264.181 184.872 260.64C170.293 243.18 156.049 279.727 156.049 279.727Z" fill="#2A919C"/>
<path d="M170.676 220.073C179.853 217.203 205.951 221.174 232.097 226.484L237.641 217.442L294.331 213.424C294.331 213.424 312.735 255.042 302.315 281.4C300.785 285.275 297.057 286.902 291.943 286.95C291.943 286.95 258.148 287.523 247.202 287.475C219.048 287.284 187.74 267.671 183.677 266.811C177.033 265.423 174.261 278.721 167.521 292.691C160.781 306.658 104.474 354.208 104.474 354.208C104.474 354.208 95.8701 354.256 92.333 352.87C88.509 351.387 87.1228 349.521 87.1228 349.521C87.1228 349.521 149.979 226.579 170.676 220.073Z" fill="#2AB1C0"/>
<path d="M238.551 139.419C258.626 150.661 299.399 174.006 299.637 173.862C299.637 173.862 314.647 179.651 323.203 174.006C337.494 164.678 345.286 139.276 319.427 117.175C306.52 106.172 297.342 103.446 296.052 85.985C295.383 76.5133 282.668 45.2276 261.159 47.9544C259.343 48.1935 257.574 48.3371 255.758 48.2893C253.272 48.1935 249.113 48.5285 244.859 51.0159C232.67 58.1916 208.341 134.875 238.551 139.419Z" fill="#333333"/>
<path d="M255.52 130.043C255.424 130.091 265.413 133.583 272.153 130.665C278.464 127.938 283.339 117.605 283.242 117.558C280.376 117.414 277.269 114.879 274.926 98.4228L273.684 98.8533L253.129 106.077C253.129 106.077 254.563 112.678 255.472 118.945C256.236 124.255 256.667 129.326 255.52 130.043Z" fill="#F4B1A4"/>
<path d="M253.129 106.125C253.129 106.125 253.989 110.765 255.232 117.366C267.039 115.309 272.01 105.264 273.684 98.9011L253.129 106.125Z" fill="#ED975D"/>
<path d="M250.023 112.63C250.023 112.63 278.128 109.043 275.643 91.582C273.158 74.1212 275.117 61.8748 257.048 63.4058C239.029 64.9366 236.494 72.1121 235.872 78.1396C235.299 84.2149 242.66 113.109 250.023 112.63Z" fill="#F4B1A4"/>
<path d="M236.972 68.6203C236.972 68.6203 254.851 84.2629 267.039 85.6025C279.276 86.9419 283.913 83.0671 283.913 83.0671C283.913 83.0671 276.743 77.0396 272.489 67.3287C271.246 64.4583 268.568 62.497 265.461 62.21C256.715 61.349 240.176 60.8704 236.972 68.6203Z" fill="#333333"/>
<path d="M248.206 67.2806C248.206 67.2806 242.136 73.069 240.224 77.3743C238.36 81.5361 237.739 91.4864 239.172 95.4568C239.172 95.4568 229.947 77.183 235.301 68.3331C240.988 59.0047 248.206 67.2806 248.206 67.2806Z" fill="#333333"/>
<path d="M231.571 171.279C232.001 228.159 231.475 216.246 237.641 221.7C239.124 222.991 243.329 223.805 248.875 224.235C266.273 225.527 296.911 222.848 298.107 219.643C302.218 208.544 299.397 205.052 302.887 187.975C303.27 186.157 303.701 184.195 304.225 182.043C307.093 170.322 309.867 166.352 300.068 147.456C291.177 130.33 281.952 116.41 281.09 116.888C257.238 130.809 255.422 118.945 255.422 118.945C255.422 118.945 231.38 143.533 231.571 171.279Z" fill="#EDC038"/>
<path d="M169.719 317.47L187.596 366.742C187.596 366.742 192.519 367.27 197.299 365.93C201.649 364.685 206.716 361.433 206.716 361.433C206.716 361.433 202.031 308.668 192.806 278.291L169.719 317.47Z" fill="#2AB1C0"/>
<path d="M255.472 118.993C255.472 118.993 231.047 122.963 228.083 133.488C225.119 144.012 207.816 205.722 207.816 205.722C207.816 205.722 220.196 208.018 225.979 202.326C231.763 196.633 246.295 149.226 246.295 149.226L255.472 118.993Z" fill="#EDC038"/>
<path d="M248.923 224.235C266.323 225.527 296.961 222.848 298.156 219.643C302.268 208.545 299.447 205.053 302.937 187.975L294.714 164.247C294.714 164.247 295.909 190.606 288.117 197.494C280.328 204.383 256.188 210.65 252.413 216.438C250.501 219.212 249.306 221.987 248.923 224.235Z" fill="#BF9A27"/>
<path d="M268.951 213.281C268.951 213.281 251.791 209.31 249.018 210.841C246.247 212.372 239.41 217.873 238.551 219.786C237.691 221.7 244.716 218.351 247.011 217.777C248.492 217.395 252.365 218.782 254.325 219.452C262.402 222.226 267.42 220.839 267.42 220.839L268.951 213.281Z" fill="#F4B1A4"/>
<path d="M281.14 116.936C281.14 116.936 304.227 118.515 312.114 129.709C323.251 145.495 345.095 212.563 332.237 221.365C317.754 231.315 266.704 223.518 266.704 223.518C266.704 223.518 265.078 215.529 267.468 211.702C269.858 207.875 308.384 201.943 310.152 200.173C311.921 198.403 288.213 165.348 288.26 160.038C288.26 154.728 281.14 116.936 281.14 116.936Z" fill="#EDC038"/>
<path d="M248.159 215.577C248.159 215.577 244.526 220.217 243.331 220.743C242.136 221.269 241.369 221.126 241.369 221.126L243.807 216.773L248.159 215.577Z" fill="#FFB27D"/>
<path d="M249.018 210.841L238.503 215.864C238.503 215.864 238.934 216.581 240.224 216.533C241.514 216.486 244.764 215.338 244.764 215.338L249.018 210.841Z" fill="#FFB27D"/>
<path d="M245.576 228.254L162.74 227.678L138.267 165.491L220.96 166.065L245.576 228.254Z" fill="#BBBBBB"/>
<path d="M161.784 225.288L271.148 226.053V228.445L162.739 227.678L161.784 225.288Z" fill="#727272"/>
<path d="M183.867 196.824C183.246 194.624 184.536 192.901 186.687 192.901C188.886 192.901 191.133 194.719 191.754 196.872C192.375 199.072 191.085 200.795 188.934 200.795C186.735 200.795 184.488 199.025 183.867 196.824Z" fill="white"/>
<path d="M244.186 87.1451C243.127 87.0304 242.623 82.8409 245.174 83.0448C246.587 83.2266 245.945 87.3067 244.186 87.1451Z" fill="#382823"/>
<path d="M259.98 88.4897C261.039 88.6044 262.202 84.4939 259.651 84.2902C258.241 84.1084 258.22 88.3282 259.98 88.4897Z" fill="#382823"/>
<path d="M246.993 78.1055C248.682 78.5351 248.342 80.2247 247.018 80.0377C245.163 79.7935 244.852 78.9327 241.24 80.1087C237.29 81.4799 241.752 76.8271 246.993 78.1055Z" fill="#333333"/>
<path d="M247.726 93.5649C247.483 93.9306 247.596 94.3634 247.955 94.5186C251.481 96.4237 251.374 94.5841 250.322 94.5571C246.728 94.5018 250.422 93.2332 251.03 87.0457C251.079 86.4274 250.372 86.2927 250.227 86.8284C250.016 87.7195 249.925 90.713 247.726 93.5649Z" fill="#A95540"/>
<path d="M257.275 100.096C257.431 99.9784 257.649 100.206 257.508 100.41C250.839 110.265 245.487 100.266 246.902 100.724C249.084 101.488 253.057 101.84 257.275 100.096Z" fill="white"/>
<mask id="mask0_1_148" style="mask-type:luminance" maskUnits="userSpaceOnUse" x="74" y="0" width="131" height="130">
<path d="M171.526 5.84872e-05L74.8333 32.7284L107.448 129.757L204.141 97.029L171.526 5.84872e-05Z" fill="white"/>
</mask>
<g mask="url(#mask0_1_148)">
<path d="M159.196 86.8008C159.046 82.3489 160.24 77.892 162.512 73.971C166.856 66.8717 168.102 57.8949 165.248 49.4048C159.948 33.6377 142.506 25.1324 126.662 31.3956C112.563 36.8433 104.956 52.9264 109.378 67.4149C112.166 76.3776 118.643 82.9658 126.655 86.1077C131.03 87.7786 134.671 90.599 137.238 94.2328L159.196 86.8008Z" fill="#FFD15C"/>
<path d="M145.634 91.8416L147.447 91.2279L129.265 63.8359C129.467 63.7679 129.668 63.6996 129.869 63.6316C130.876 63.2905 131.748 62.5454 132.282 61.4641C132.549 60.9234 132.884 60.5848 133.488 60.3803C134.093 60.1757 134.563 60.2417 135.102 60.5095C137.056 61.6491 139.473 60.831 140.34 58.7366C140.607 58.1962 140.942 57.8576 141.546 57.653C141.949 57.5167 142.621 57.5142 143.16 57.782C144.238 58.3179 145.179 58.4494 146.388 58.0403C146.589 57.9723 146.791 57.904 146.992 57.8357L149.26 90.6144L151.073 90.0007L148.732 55.6708C148.597 55.2666 148.461 54.862 147.99 54.7965C147.519 54.7305 147.184 55.0691 147.051 55.3394C146.784 55.8801 146.449 56.2187 146.046 56.355C145.442 56.5596 144.971 56.4938 144.23 56.294C143.153 55.7581 142.211 55.6266 141.204 55.9677C140.197 56.3086 139.527 56.9856 138.993 58.0669C138.459 59.1483 137.25 59.5574 136.173 59.0215C135.297 58.4174 134.154 58.3541 133.146 58.695C132.139 59.0359 131.267 59.7811 130.935 60.7942C130.668 61.3349 130.132 61.7417 129.527 61.9461C129.124 62.0826 128.452 62.0849 128.115 61.7488C127.846 61.6147 127.375 61.5492 127.04 61.8876C126.705 62.2262 126.639 62.6986 126.977 63.0345L145.634 91.8416Z" fill="white"/>
<path d="M148.123 111.262C149.946 113.347 152.975 114.348 155.795 113.393C158.615 112.439 160.421 109.801 160.613 107.034L148.123 111.262Z" fill="#344A5E"/>
<path d="M161.89 106.827L147.184 111.805C145.17 112.487 143.015 111.415 142.335 109.393L137.171 94.0305L159.129 86.5986L164.293 101.962C164.972 103.983 163.904 106.146 161.89 106.827Z" fill="#344A5E"/>
<path d="M161.508 94.3482L139.752 101.712C138.544 102.121 137.197 101.451 136.789 100.238C136.381 99.0256 137.049 97.6742 138.258 97.265L160.013 89.9011C161.222 89.4922 162.569 90.1619 162.977 91.3747C163.385 92.5876 162.717 93.9391 161.508 94.3482Z" fill="#415A6B"/>
<path d="M163.887 101.424L142.131 108.787C140.922 109.196 139.575 108.527 139.168 107.314C138.76 106.101 139.427 104.749 140.636 104.34L162.392 96.9765C163.601 96.5673 164.947 97.237 165.355 98.4499C165.763 99.6625 165.095 101.014 163.887 101.424Z" fill="#415A6B"/>
<path d="M123.18 16.3643C122.173 16.7052 121.438 17.8548 121.845 19.0676L124.156 25.9407C124.495 26.9512 125.641 27.6892 126.85 27.2803C128.058 26.8711 128.592 25.7898 128.185 24.5769L125.874 17.7039C125.466 16.491 124.187 16.0234 123.18 16.3643Z" fill="#FFD15C"/>
<path d="M100.331 37.8318C99.2535 37.2959 98.0448 37.705 97.511 38.7864C96.9772 39.8677 97.3847 41.0806 98.4623 41.6163L104.928 44.8314C106.005 45.3673 107.214 44.9581 107.748 43.8768C108.282 42.7954 107.874 41.5826 106.797 41.0469L100.331 37.8318Z" fill="#FFD15C"/>
<path d="M103.464 67.8414L96.6148 70.1595C95.6075 70.5004 94.8721 71.65 95.2796 72.8628C95.6195 73.8736 96.7649 74.6116 97.9736 74.2025L104.823 71.8844C105.83 71.5435 106.566 70.3939 106.158 69.181C105.818 68.17 104.471 67.5003 103.464 67.8414Z" fill="#FFD15C"/>
<path d="M119.877 89.303L116.673 95.7909C116.139 96.8722 116.547 98.0851 117.624 98.6208C118.702 99.1564 119.911 98.7475 120.444 97.6662L123.648 91.1783C124.183 90.097 123.775 88.8841 122.697 88.3484C121.62 87.8128 120.411 88.2215 119.877 89.303Z" fill="#FFD15C"/>
<path d="M169.835 72.3934C168.757 71.8575 167.548 72.2666 167.014 73.348C166.48 74.4293 166.888 75.6422 167.965 76.1778L174.431 79.393C175.508 79.9289 176.717 79.5197 177.251 78.4384C177.785 77.357 177.377 76.1442 176.3 75.6085L169.835 72.3934Z" fill="#FFD15C"/>
<path d="M176.789 43.0223L169.94 45.3407C168.933 45.6816 168.197 46.8312 168.605 48.044C168.945 49.0546 170.09 49.7928 171.299 49.3837L178.148 47.0653C179.155 46.7244 179.891 45.5748 179.483 44.362C179.143 43.3512 177.998 42.6132 176.789 43.0223Z" fill="#FFD15C"/>
<path d="M154.319 19.5585L151.115 26.0462C150.581 27.1278 150.988 28.3407 152.066 28.8763C153.143 29.4122 154.352 29.0031 154.886 27.9217L158.09 21.4339C158.624 20.3525 158.216 19.1396 157.139 18.6039C156.061 18.0682 154.853 18.4771 154.319 19.5585Z" fill="#FFD15C"/>
</g>
</g>
<defs>
<clipPath id="clip0_1_148">
<rect width="449" height="418" fill="white"/>
</clipPath>
</defs>
</svg>
